TITLE ""
FILE "P1Q_t_1501-1509.mp3" MP3
  TRACK 01 AUDIO
    TITLE "P1Q_t_1501-1509_01"
    INDEX 01 00:00:00
  TRACK 02 AUDIO
    TITLE "P1Q_t_1501-1509_02"
    INDEX 01 00:00:16
  TRACK 03 AUDIO
    TITLE "P1Q_t_1501-1509_03"
    INDEX 01 00:02:15
  TRACK 04 AUDIO
    TITLE "P1Q_t_1501-1509_04"
    INDEX 01 00:02:62
  TRACK 05 AUDIO
    TITLE "P1Q_t_1501-1509_05"
    INDEX 01 00:03:69
  TRACK 06 AUDIO
    TITLE "P1Q_t_1501-1509_06"
    INDEX 01 00:04:39
  TRACK 07 AUDIO
    TITLE "P1Q_t_1501-1509_07"
    INDEX 01 00:05:57
  TRACK 08 AUDIO
    TITLE "P1Q_t_1501-1509_08"
    INDEX 01 00:06:01
  TRACK 09 AUDIO
    TITLE "P1Q_t_1501-1509_09"
    INDEX 01 00:09:01
  TRACK 10 AUDIO
    TITLE "P1Q_t_1501-1509_10"
    INDEX 01 00:09:21
  TRACK 11 AUDIO
    TITLE "P1Q_t_1501-1509_11"
    INDEX 01 00:13:70
  TRACK 12 AUDIO
    TITLE "P1Q_t_1501-1509_12"
    INDEX 01 00:14:40
  TRACK 13 AUDIO
    TITLE "P1Q_t_1501-1509_13"
    INDEX 01 00:15:65
  TRACK 14 AUDIO
    TITLE "P1Q_t_1501-1509_14"
    INDEX 01 00:16:11
  TRACK 15 AUDIO
    TITLE "P1Q_t_1501-1509_15"
    INDEX 01 00:18:22
  TRACK 16 AUDIO
    TITLE "P1Q_t_1501-1509_16"
    INDEX 01 00:18:40
  TRACK 17 AUDIO
    TITLE "P1Q_t_1501-1509_17"
    INDEX 01 00:22:73
  TRACK 18 AUDIO
    TITLE "P1Q_t_1501-1509_18"
    INDEX 01 00:23:43
  TRACK 19 AUDIO
    TITLE "P1Q_t_1501-1509_19"
    INDEX 01 00:24:68
  TRACK 20 AUDIO
    TITLE "P1Q_t_1501-1509_20"
    INDEX 01 00:25:12
  TRACK 21 AUDIO
    TITLE "P1Q_t_1501-1509_21"
    INDEX 01 00:26:61
  TRACK 22 AUDIO
    TITLE "P1Q_t_1501-1509_22"
    INDEX 01 00:27:05
  TRACK 23 AUDIO
    TITLE "P1Q_t_1501-1509_23"
    INDEX 01 00:31:09
  TRACK 24 AUDIO
    TITLE "P1Q_t_1501-1509_24"
    INDEX 01 00:31:54
  TRACK 25 AUDIO
    TITLE "P1Q_t_1501-1509_25"
    INDEX 01 00:32:73
  TRACK 26 AUDIO
    TITLE "P1Q_t_1501-1509_26"
    INDEX 01 00:33:18
  TRACK 27 AUDIO
    TITLE "P1Q_t_1501-1509_27"
    INDEX 01 00:34:70
  TRACK 28 AUDIO
    TITLE "P1Q_t_1501-1509_28"
    INDEX 01 00:35:15
  TRACK 29 AUDIO
    TITLE "P1Q_t_1501-1509_29"
    INDEX 01 00:40:02
  TRACK 30 AUDIO
    TITLE "P1Q_t_1501-1509_30"
    INDEX 01 00:40:49
  TRACK 31 AUDIO
    TITLE "P1Q_t_1501-1509_31"
    INDEX 01 00:41:74
  TRACK 32 AUDIO
    TITLE "P1Q_t_1501-1509_32"
    INDEX 01 00:42:20
  TRACK 33 AUDIO
    TITLE "P1Q_t_1501-1509_33"
    INDEX 01 00:45:74
  TRACK 34 AUDIO
    TITLE "P1Q_t_1501-1509_34"
    INDEX 01 00:46:18
  TRACK 35 AUDIO
    TITLE "P1Q_t_1501-1509_35"
    INDEX 01 00:50:18
  TRACK 36 AUDIO
    TITLE "P1Q_t_1501-1509_36"
    INDEX 01 00:50:65
  TRACK 37 AUDIO
    TITLE "P1Q_t_1501-1509_37"
    INDEX 01 00:52:05
  TRACK 38 AUDIO
    TITLE "P1Q_t_1501-1509_38"
    INDEX 01 00:52:29
  TRACK 39 AUDIO
    TITLE "P1Q_t_1501-1509_39"
    INDEX 01 00:57:46
  TRACK 40 AUDIO
    TITLE "P1Q_t_1501-1509_40"
    INDEX 01 00:57:65
  TRACK 41 AUDIO
    TITLE "P1Q_t_1501-1509_41"
    INDEX 01 01:01:49
  TRACK 42 AUDIO
    TITLE "P1Q_t_1501-1509_42"
    INDEX 01 01:02:19
  TRACK 43 AUDIO
    TITLE "P1Q_t_1501-1509_43"
    INDEX 01 01:03:34
  TRACK 44 AUDIO
    TITLE "P1Q_t_1501-1509_44"
    INDEX 01 01:03:56
  TRACK 45 AUDIO
    TITLE "P1Q_t_1501-1509_45"
    INDEX 01 01:06:33
  TRACK 46 AUDIO
    TITLE "P1Q_t_1501-1509_46"
    INDEX 01 01:06:50
  TRACK 47 AUDIO
    TITLE "P1Q_t_1501-1509_47"
    INDEX 01 01:10:62
  TRACK 48 AUDIO
    TITLE "P1Q_t_1501-1509_48"
    INDEX 01 01:11:32
  TRACK 49 AUDIO
    TITLE "P1Q_t_1501-1509_49"
    INDEX 01 01:12:37
  TRACK 50 AUDIO
    TITLE "P1Q_t_1501-1509_50"
    INDEX 01 01:12:57
  TRACK 51 AUDIO
    TITLE "P1Q_t_1501-1509_51"
    INDEX 01 01:16:23
  TRACK 52 AUDIO
    TITLE "P1Q_t_1501-1509_52"
    INDEX 01 01:16:43
  TRACK 53 AUDIO
    TITLE "P1Q_t_1501-1509_53"
    INDEX 01 01:19:51
  TRACK 54 AUDIO
    TITLE "P1Q_t_1501-1509_54"
    INDEX 01 01:20:21
  TRACK 55 AUDIO
    TITLE "P1Q_t_1501-1509_55"
    INDEX 01 01:21:46
  TRACK 56 AUDIO
    TITLE "P1Q_t_1501-1509_56"
    INDEX 01 01:21:70
  TRACK 57 AUDIO
    TITLE "P1Q_t_1501-1509_57"
    INDEX 01 01:23:23
  TRACK 58 AUDIO
    TITLE "P1Q_t_1501-1509_58"
    INDEX 01 01:23:43
  TRACK 59 AUDIO
    TITLE "P1Q_t_1501-1509_59"
    INDEX 01 01:27:33
